<?xml version="1.0" encoding="utf-8"?>
<!-- Generator: Adobe Illustrator 16.0.0, SVG Export Plug-In . SVG Version: 6.00 Build 0)  -->
<!DOCTYPE svg PUBLIC "-//W3C//DTD SVG 1.1//EN" "http://www.w3.org/Graphics/SVG/1.1/DTD/svg11.dtd">
<svg version="1.1" id="Layer_1" xmlns="http://www.w3.org/2000/svg" xmlns:xlink="http://www.w3.org/1999/xlink" x="0px" y="0px"
	 width="455px" height="793px" viewBox="0 0 455 793" enable-background="new 0 0 455 793" xml:space="preserve">
<g>
	<path fill="#85CBE0" d="M166.537,494.693v78c0,22.865,2.934,40.759,8.72,53.184c5.501,11.855,16.387,17.617,33.28,17.617
		c4.5,0,8.474-0.604,11.962-1.81c-4.552-3.356-8.131-7.775-10.684-13.278c-6.156-13.221-9.279-31.967-9.279-55.713v-78H166.537z"/>
	<path fill="#85CBE0" d="M219.388,158.095c1.122-1.942,2.554-3.66,4.258-5.177c-3.448-1.345-7.28-2.025-11.51-2.025
		c-14.373,0-23.642,3.432-27.552,10.201c-4.289,7.438-7.189,17.052-8.621,28.57c-1.566,12.498-2.561,20.735-3.127,25.894v20.236h34
		l0.018-20.727c0.567-5.18,1.57-13.488,3.156-26.146C211.541,176.606,214.696,166.234,219.388,158.095z"/>
	<path fill="#85CBE0" d="M397.863,726.497c32.695-40.055,49.273-100.28,49.273-179.003c0-38.003-1.654-68.745-4.918-91.372
		c-3.225-22.236-10.032-41.356-20.235-56.827c-10.173-15.387-25.982-28.515-46.988-39.018l-6.24-3.121l6.558-2.383
		c25.492-9.263,43.692-25.538,54.094-48.374c10.571-23.19,15.931-55.021,15.931-94.606c0-67.577-16.299-118.885-48.443-152.499
		c-27.655-28.919-67.856-45.548-119.711-49.608c34.727,8.128,62.869,23.316,84.048,45.462
		c33.248,34.768,50.106,87.471,50.106,156.645c0,40.45-5.541,73.117-16.471,97.094c-10.229,22.459-27.479,38.95-51.323,49.092
		c19.067,10.447,33.665,23.213,43.447,38.009c10.694,16.215,17.814,36.156,21.166,59.273c3.305,22.912,4.98,53.942,4.98,92.231
		c0,80.142-17.033,141.644-50.625,182.797c-22.394,27.442-53.96,45.894-94.237,55.206
		C326.154,780.818,369.678,761.038,397.863,726.497z"/>
	<path d="M448.156,455.263c-3.352-23.117-10.472-43.059-21.166-59.273c-9.782-14.796-24.38-27.563-43.447-38.009
		c23.845-10.143,41.094-26.633,51.323-49.092c10.93-23.977,16.471-56.644,16.471-97.094c0-69.174-16.858-121.877-50.106-156.645
		C367.944,20.342,317.479,2.693,251.237,2.693c-7.023,0-13.861,0.188-20.529,0.542c-6.333-0.355-12.818-0.542-19.471-0.542
		c-68.919,0-120.81,17.104-154.231,50.838C23.582,87.256,6.332,140.495,5.737,211.769l0,0.063l0.998,29.962h40h126.102h40v-26.236
		c0.566-5.159,1.562-13.396,3.127-25.894c1.431-11.518,4.332-21.131,8.621-28.57c1.141-1.975,2.751-3.656,4.797-5.061
		c11.778,8.479,17.556,27.518,17.556,57.56c0,25.986-6.627,45.066-19.696,56.71c-13.174,11.738-33.396,17.69-60.105,17.69h-3
		v145.432l3.72-0.92c1.5-0.37,5.248-0.813,14.581-0.813c21.012,0,36.309,7.728,46.765,23.624
		c10.573,16.076,15.935,40.729,15.935,73.276v18.9c0,23.156-0.601,41.075-1.785,53.257c-1.157,11.779-4.488,22.088-9.897,30.636
		c-1.865,2.94-4.125,5.326-6.789,7.187c-5.03-2.914-8.823-7.123-11.408-12.696c-5.786-12.425-8.72-30.318-8.72-53.184v-84h-40
		h-124.4h-40v84c0,73.621,15.996,129.244,47.542,165.324c31.636,36.214,82.359,54.576,150.759,54.576
		c6.896,0,13.622-0.184,20.18-0.549c6.435,0.36,13.037,0.549,19.82,0.549c73.81,0,128.34-20.962,162.074-62.303
		c33.592-41.153,50.625-102.655,50.625-182.797C453.137,509.205,451.461,478.175,448.156,455.263z M8.137,494.693h40h112.4v78
		c0,23.746,3.123,42.492,9.279,55.713c6.493,13.993,19.521,21.088,38.721,21.088c13.625,0,23.713-5.011,29.985-14.896
		c5.916-9.35,9.55-20.541,10.801-33.265c1.203-12.376,1.813-30.49,1.813-53.84v-18.9c0-68.279-23.114-102.9-68.699-102.9
		c-5.292,0-9.364,0.139-12.301,0.42V293.969c26.758-0.445,47.301-6.894,61.097-19.186c14.401-12.832,21.704-33.419,21.704-61.19
		c0-45.586-13.728-68.7-40.801-68.7c-16.67,0-27.688,4.441-32.749,13.202c-4.692,8.139-7.848,18.511-9.377,30.826
		c-1.586,12.659-2.589,20.967-3.156,26.146l-0.018,20.727H52.539h-40l-0.801-24.037c0.591-69.623,17.255-121.438,49.53-154.002
		C93.521,25.2,143.978,8.693,211.237,8.693c64.541,0,113.547,17.025,145.656,50.602c32.145,33.614,48.443,84.922,48.443,152.499
		c0,39.585-5.359,71.416-15.931,94.606c-10.401,22.836-28.602,39.111-54.094,48.374l-6.558,2.383l6.24,3.121
		c21.006,10.502,36.815,23.631,46.988,39.018c10.203,15.471,17.011,34.591,20.235,56.827c3.264,22.627,4.918,53.369,4.918,91.372
		c0,78.723-16.578,138.948-49.273,179.003c-32.54,39.877-85.506,60.097-157.426,60.097c-66.592,0-115.794-17.672-146.242-52.524
		c-30.563-34.956-46.059-89.25-46.059-161.376V494.693z M209.816,628.406c2.553,5.503,6.132,9.922,10.684,13.278
		c-3.489,1.206-7.463,1.81-11.962,1.81c-16.894,0-27.779-5.762-33.28-17.617c-5.786-12.425-8.72-30.318-8.72-53.184v-78h34v78
		C200.537,596.439,203.66,615.186,209.816,628.406z M206.837,235.794h-34v-20.236c0.566-5.159,1.562-13.396,3.127-25.894
		c1.431-11.518,4.332-21.131,8.621-28.57c3.91-6.769,13.179-10.201,27.552-10.201c4.23,0,8.062,0.68,11.51,2.025
		c-1.704,1.517-3.136,3.234-4.258,5.177c-4.692,8.139-7.848,18.511-9.377,30.826c-1.586,12.659-2.589,20.967-3.156,26.146
		L206.837,235.794z M362.512,730.291c33.592-41.153,50.625-102.655,50.625-182.797c0-38.289-1.676-69.319-4.98-92.231
		c-3.352-23.117-10.472-43.059-21.166-59.273c-9.782-14.796-24.38-27.563-43.447-38.009c23.845-10.143,41.094-26.633,51.323-49.092
		c10.93-23.977,16.471-56.644,16.471-97.094c0-69.174-16.858-121.877-50.106-156.645c-21.179-22.146-49.321-37.334-84.048-45.462
		c51.854,4.06,92.056,20.689,119.711,49.608c32.145,33.614,48.443,84.922,48.443,152.499c0,39.585-5.359,71.416-15.931,94.606
		c-10.401,22.836-28.602,39.111-54.094,48.374l-6.558,2.383l6.24,3.121c21.006,10.502,36.815,23.631,46.988,39.018
		c10.203,15.471,17.011,34.591,20.235,56.827c3.264,22.627,4.918,53.369,4.918,91.372c0,78.723-16.578,138.948-49.273,179.003
		c-28.186,34.541-71.709,54.321-129.589,59C308.552,776.185,340.118,757.733,362.512,730.291z"/>
	<path fill="#FFFFFF" d="M200.438,786.594c71.92,0,124.886-20.22,157.426-60.097c32.695-40.055,49.273-100.28,49.273-179.003
		c0-38.003-1.654-68.745-4.918-91.372c-3.225-22.236-10.032-41.356-20.235-56.827c-10.173-15.387-25.982-28.515-46.988-39.018
		l-6.24-3.121l6.558-2.383c25.492-9.263,43.692-25.538,54.094-48.374c10.571-23.19,15.931-55.021,15.931-94.606
		c0-67.577-16.299-118.885-48.443-152.499C324.784,25.718,275.778,8.693,211.237,8.693c-67.259,0-117.716,16.507-149.969,49.062
		c-32.275,32.564-48.939,84.379-49.53,154.002l0.801,24.037h40h114.298l0.018-20.727c0.567-5.18,1.57-13.488,3.156-26.146
		c1.53-12.314,4.685-22.687,9.377-30.826c5.06-8.761,16.078-13.202,32.749-13.202c27.073,0,40.801,23.114,40.801,68.7
		c0,27.771-7.303,48.358-21.704,61.19c-13.795,12.292-34.338,18.741-61.097,19.186v132.144c2.937-0.281,7.009-0.42,12.301-0.42
		c45.585,0,68.699,34.621,68.699,102.9v18.9c0,23.35-0.61,41.464-1.813,53.84c-1.251,12.724-4.885,23.915-10.801,33.265
		c-6.272,9.885-16.36,14.896-29.985,14.896c-19.201,0-32.228-7.095-38.721-21.088c-6.156-13.221-9.279-31.967-9.279-55.713v-78
		h-112.4h-40v78c0,72.126,15.497,126.42,46.059,161.376C84.643,768.922,133.846,786.594,200.438,786.594z"/>
</g>
</svg>
